<?xml version="1.0" encoding="utf-8"?>
<!-- Generator: Adobe Illustrator 21.1.0, SVG Export Plug-In . SVG Version: 6.00 Build 0)  -->
<svg version="1.1" id="Layer_1" xmlns="http://www.w3.org/2000/svg" xmlns:xlink="http://www.w3.org/1999/xlink" x="0px" y="0px"
	 viewBox="0 0 1043 230" style="enable-background:new 0 0 1043 230;" xml:space="preserve">
<style type="text/css">
	.st0{fill:#CB1C27;}
</style>
<g>
	<g>
		<g transform="matrix( 0.20648193359375, 0, 0, 0.20648193359375, 10.9,-4.05) ">
			<g>
				<g id="Layer7_0_MEMBER_0_MEMBER_0_FILL">
					<path class="st0" d="M1447.6,147.6c-12.3-14.2-28.3-21.4-48-21.4c-29.2,0-59.1,15.4-89.9,46.2l-288.2,289.1V204.8
						c0-24.2-6.2-43.2-18.6-57.2c-12.6-14.2-28.9-21.4-48.7-21.4c-29,0-58.6,15.4-88.7,46.2L14.8,1023.1h227l623.7-622.5v622.5
						h156.2V688.7l287.9-288.2v622.5h156V204.8C1465.5,180.5,1459.6,161.4,1447.6,147.6z"/>
				</g>
			</g>
		</g>
		<g transform="matrix( 0.20648193359375, 0, 0, 0.20648193359375, 10.9,-4.05) ">
			<g>
				<g id="Layer7_0_MEMBER_0_MEMBER_1_FILL">
					<path class="st0" d="M2071.2,374.2c0,25-9.2,45.8-27.6,62.3c-19,19.1-45.5,28.7-79.7,28.7h-75c-94.5,0-170.6,28.3-228.4,84.9
						c-52.3,51.7-78.5,114.4-78.5,188.3v284.7h641.3v-156h-500.2V738.4c0-32.5,14.8-60.1,44.3-82.8c29.4-23,69.9-34.4,121.5-34.4h75
						c87.3,0,156.7-25.8,208.3-77.5c46.7-46.5,70.1-103.3,70.1-170.6c0-66.4-23.4-122.9-70.1-169.6
						c-51.5-51.5-120.9-77.3-208.3-77.3h-366.7v156H1964c33.3,0,59.4,9.2,78.5,27.5C2061.6,327.8,2071.2,349.3,2071.2,374.2z"/>
				</g>
			</g>
		</g>
		<g transform="matrix( 0.20648193359375, 0, 0, 0.20648193359375, 10.9,-4.05) ">
			<g>
				<g id="Layer7_0_MEMBER_0_MEMBER_2_FILL">
					<path class="st0" d="M2780.1,308c22.3,18.6,36.9,47.9,43.7,88.1l259.8-15c-11.3-92.8-46.9-160.4-106.8-202.9
						c-59.9-42.4-147-63.6-261.2-63.6c-92.9,0-166,11.7-219.3,35c-53.6,23.5-93.6,55.6-120.1,96.3c-26.6,40.9-39.8,84.2-39.8,130
						c0,69.8,26,127.4,78,172.6c51.3,44.9,137.6,81,258.9,108.4c74.4,16.5,121.6,33.7,141.6,51.8c20.5,18.3,30.7,39.1,30.7,62.3
						c0,24.2-10.8,45.7-32.3,64.3c-21.3,18.5-51.7,27.7-91.3,27.7c-52.8,0-93.5-18.1-122-54.3c-17.5-22.6-29.1-55.2-34.7-97.7
						l-262.2,16.4c7.7,90.1,40.8,164.6,99.3,223.3c58.2,58.5,163.4,87.7,315.6,87.7c86.5,0,158.1-12.5,214.6-37.5
						c56.9-24.7,101.2-61.3,132.9-109.9c31.7-48.6,47.5-101.4,47.5-158.5c0-48.7-11.8-92.9-35.5-132.4
						c-24.4-39.7-62.4-72.8-114-99.1c-52.1-26.6-138.5-52.9-259.2-78.9c-48.9-10.2-79.8-21.2-92.5-33
						c-13.4-11.3-20.2-24.1-20.2-38.4c0-19.5,8.1-36.1,24.2-49.7c16.3-13.7,40.4-20.5,72.3-20.5C2727.4,280.6,2758,289.7,2780.1,308
						z"/>
				</g>
			</g>
		</g>
		<g transform="matrix( 0.20648193359375, 0, 0, 0.20648193359375, 10.9,-4.05) ">
			<g>
				<g id="Layer7_0_MEMBER_0_MEMBER_3_FILL">
					<path class="st0" d="M3828.4,130.1l-180.4,300l-179.5-300h-306.4l347.5,519v374h276.4V649l347.5-519H3828.4z"/>
				</g>
			</g>
		</g>
		<g transform="matrix( 0.20648193359375, 0, 0, 0.20648193359375, 10.9,-4.05) ">
			<g>
				<g id="Layer7_0_MEMBER_0_MEMBER_4_FILL">
					<path class="st0" d="M4901.5,381c-11.5-92.9-47.1-160.6-106.8-202.9c-60.3-42.4-147.3-63.6-260.9-63.6
						c-93.2,0-166.5,11.7-219.9,35c-53.3,23.4-93.3,55.5-119.8,96.3c-26.6,40.6-39.8,84-39.8,130c0,69.7,26,127.3,77.9,172.6
						c51.7,44.9,138,81.1,258.9,108.4c74.3,16.4,121.5,33.7,141.7,51.8c20.4,18.6,30.6,39.3,30.6,62.3c0,24.4-10.8,45.8-32.3,64.3
						c-21.4,18.5-51.7,27.7-91.1,27.7c-53.3,0-93.9-18.1-121.9-54.3c-17.4-22.1-29.1-54.6-35-97.7l-262,16.4
						c7.5,90.1,40.6,164.6,99.2,223.3c58.1,58.5,163.2,87.7,315.4,87.7c86.5,0,158.2-12.5,215.1-37.5
						c56.9-25,101.1-61.6,132.6-109.9c31.8-48.4,47.6-101.2,47.6-158.5c0-49.1-12-93.3-35.9-132.4c-23.4-39.4-61.4-72.5-113.8-99.1
						c-51.8-26.5-138.2-52.8-259-78.9c-48.7-10.2-79.6-21.2-92.6-33c-13.4-11.3-20.2-24.1-20.2-38.4c0-19.7,8.2-36.2,24.5-49.7
						c16.1-13.7,40.2-20.5,72.5-20.5c39.1,0,69.6,9.1,91.5,27.4c22.2,18.5,36.7,47.8,43.5,88.1L4901.5,381z"/>
				</g>
			</g>
		</g>
	</g>
</g>
</svg>
